<?xml version="1.0" encoding="utf-8"?>
<!-- Generator: Adobe Illustrator 25.2.1, SVG Export Plug-In . SVG Version: 6.00 Build 0)  -->
<svg version="1.1" id="레이어_1" xmlns="http://www.w3.org/2000/svg" xmlns:xlink="http://www.w3.org/1999/xlink" x="0px"
	 y="0px" viewBox="0 0 56.9 39.3" style="enable-background:new 0 0 56.9 39.3;" xml:space="preserve">
<style type="text/css">
	.st0{opacity:0.15;fill:#0B3D6F;}
	.st1{fill:none;stroke:#999999;stroke-width:2;stroke-linejoin:round;stroke-miterlimit:10;}
	.st2{fill:#FFFFFF;stroke:#999999;stroke-width:2;stroke-linejoin:round;stroke-miterlimit:10;}
</style>
<polygon class="st0" points="43.9,10.7 28.5,6.1 13,10.7 28.5,17 "/>
<path class="st0" d="M28,16L4.7,23.5c-0.6,0.2-1,0.8-1,1.4v1.5c0,0.9,0.5,1.6,1.3,2l22.6,10.7c0.6,0.3,1.3,0.3,1.9,0L52,28.4
	c0.8-0.4,1.3-1.2,1.3-2V25c0-0.7-0.4-1.2-1.1-1.4L28,16z"/>
<polygon class="st1" points="28.5,17 5.9,7.7 28.5,1 51,7.7 "/>
<g>
	<polygon class="st2" points="28.5,17 28.5,36.3 51,25.6 51,7.7 	"/>
	<polygon class="st2" points="28.5,17 28.5,36.3 5.9,25.6 5.9,7.7 	"/>
	<polygon class="st2" points="28.5,17 32.8,25.2 55.9,15.2 51,7.7 	"/>
	<polygon class="st2" points="28.5,17 24.1,25.2 1,15.2 5.9,7.7 	"/>
</g>
</svg>
